<svg width="94" height="28" viewBox="0 0 94 28" fill="none" xmlns="http://www.w3.org/2000/svg">
<path d="M10 28C8.93913 28 7.92202 27.5788 7.17188 26.8286C6.42173 26.0785 6 25.0609 6 24V17.5L1.48145 14.8652C1.33014 14.7773 1.20447 14.6507 1.11719 14.499C1.02991 14.3473 0.983398 14.1755 0.983398 14.0005C0.983398 13.8255 1.02991 13.6537 1.11719 13.502C1.20447 13.3502 1.33014 13.2242 1.48145 13.1362L6 10.5V4C6 2.93913 6.42173 1.92153 7.17188 1.17139C7.92202 0.421241 8.93913 0 10 0H90C91.0609 0 92.078 0.421241 92.8281 1.17139C93.5783 1.92153 94 2.93913 94 4V24C94 25.0609 93.5783 26.0785 92.8281 26.8286C92.078 27.5788 91.0609 28 90 28H10Z" fill="#FFB946"/>
</svg>
